<svg xmlns="http://www.w3.org/2000/svg" viewBox="0 0 24 13.03"><style>@media (prefers-color-scheme: dark) {path {fill: #fff;}}</style><path d="M4.86,6.88c-.66-.39-1.15-.39-1.6-.04-.44,.34-.62,.92-.46,1.47,.2,.68,.73,1.14,1.37,1.2,1.36,.12,2.4-1.18,2.05-2.55-.49-1.93-2.78-2.52-4.32-1.11-1.55,1.41-1.27,4.02,.58,5.32,1.93,1.36,4.82,.63,6.15-1.56,.9-1.48,.84-3.05,.45-4.64-.37-1.49-1.1-2.78-2.16-3.88-.28-.28-.58-.54-.88-.8-.1-.12-.1-.22,.11-.29,.46,0,.91-.01,1.37,0,5.07,.14,9.41,1.99,12.94,5.64,1.03,1.17,3.03,2.38,3.55,5.78,0,.06-.1,.11-.11,.06-.68-2.52-2.52-4.05-5.28-6.2C15.85,2.83,8.48,.65,9.2,1.61c.31,.41,2.04,2.15,1.94,5.83-.02,.72-.51,2.76-1.84,3.99-1.13,1.04-2.35,1.64-4.77,1.61-2.92-.02-5.15-3.03-4.39-5.85,.5-1.87,2.43-3.07,4.29-2.68,1.63,.34,2.71,2.19,2.17,3.74-.37,1.09-1.54,1.8-2.56,1.56-1.04-.24-1.61-1.06-1.47-2.12,.07-.54,.39-.91,.88-1.1,.49-.2,.96-.14,1.39,.3Z"/></svg>